<svg width="211" height="37" viewBox="0 0 211 37" fill="none" xmlns="http://www.w3.org/2000/svg">
<path d="M20.3803 16.3559C19.0319 15.3942 16.1745 15.8107 16.1745 15.8107C16.1745 15.8107 17.1477 15.0205 17.888 14.7592C19.064 14.3442 19.8413 14.6263 21.0813 14.7592C22.7353 14.9365 23.9506 14.7229 25.2092 15.8107C25.7754 16.3 26.1412 16.6194 26.3775 17.3294C26.7241 18.371 26.3348 19.0993 25.8712 20.0944C25.348 21.2174 24.7005 21.6537 23.7683 22.4699C22.2468 23.8019 20.9024 23.834 19.251 25.0011C17.378 26.3249 16.1655 27.0285 14.8894 28.9343C13.5888 30.8767 12.9034 34.581 12.9034 34.581C12.9034 34.581 11.0384 33.1791 10.0995 32.2055C9.16063 31.232 9.04779 31.1148 8.03554 30.0636C7.02303 29.0122 5.38744 26.7146 5.38744 26.7146L6.71149 25.7021C6.71149 25.7021 8.72864 24.3159 10.0995 23.5602C11.7562 22.647 12.7601 22.2779 14.5 21.5352C16.2143 20.8035 17.354 20.7628 18.9395 19.7828C20.0708 19.0835 21.9314 18.9258 21.5875 17.641C21.4095 16.9758 20.9409 16.7557 20.3803 16.3559Z" fill="#FD0A1C"/>
<path d="M25.4401 4.97607L21.8947 7.2153C21.8947 7.2153 21.3444 6.69993 20.9617 6.40669C20.5445 6.08709 20.3017 5.91497 19.8421 5.66028C19.3761 5.40207 19.093 5.29759 18.5981 5.10047C18.1199 4.91002 17.8541 4.78708 17.354 4.66506C16.8534 4.54291 16.5608 4.52724 16.0478 4.47846C15.5951 4.43541 15.3364 4.42861 14.888 4.41684L14.866 4.41626C14.4046 4.40413 14.1442 4.37875 13.6842 4.41626C13.3418 4.44418 13.1516 4.48078 12.8134 4.54066C12.3723 4.61874 12.1228 4.66079 11.6938 4.78946C11.2962 4.90871 11.0786 4.99588 10.6985 5.16267C10.3504 5.31545 10.155 5.40448 9.82773 5.59808C9.49718 5.79364 9.31437 5.8809 9.0091 6.11398C8.68032 6.36501 8.53297 6.49409 8.23025 6.776C8.004 6.98671 7.82579 7.18047 7.60717 7.39908C7.41284 7.59341 7.33708 7.69536 7.1531 7.89951C6.94484 8.13058 6.83818 8.26974 6.65549 8.52151C6.50118 8.73417 6.41282 8.8533 6.28229 9.08132C6.17434 9.26988 6.12515 9.38195 6.03348 9.57893C5.90609 9.85265 5.84256 10.0162 5.73727 10.2873L5.72248 10.3253C5.59168 10.6619 5.49686 10.8453 5.41147 11.1962C5.32455 11.5533 5.25417 11.7832 5.23167 12.1501C5.21235 12.4653 5.19273 12.6521 5.19273 12.9679C5.19273 13.3322 5.21825 13.5384 5.23167 13.9025C5.24423 14.2432 5.28599 14.4066 5.34927 14.7416C5.4106 15.0662 5.48519 15.2397 5.59808 15.5502C5.72449 15.8979 5.81498 16.0857 5.97128 16.421C6.10895 16.7164 6.18687 16.8822 6.34449 17.1674C6.52382 17.492 6.62025 17.6789 6.84209 17.976C7.09921 18.3204 7.25554 18.5144 7.56823 18.8093C7.8443 19.0695 8.01207 19.234 8.30814 19.4713C8.619 19.7204 8.80109 19.8251 9.14352 20.0287C9.44246 20.2064 9.62913 20.2729 9.95214 20.4019C10.3088 20.5443 10.5143 20.6128 10.8851 20.7129C11.2209 20.8035 11.4116 20.8508 11.756 20.8995C12.0935 20.9472 12.2859 20.9553 12.6268 20.9617C13.0889 20.9703 13.3507 20.9626 13.8086 20.8995C14.2523 20.8383 14.497 20.7719 14.9282 20.6507C15.2979 20.5467 15.4996 20.4914 15.863 20.367C16.2773 20.2251 16.5138 20.1334 16.9186 19.9665C17.2402 19.8339 17.4152 19.7699 17.7322 19.627C18.119 19.4527 18.3475 19.3563 18.7225 19.1579C19.0502 18.9844 19.2549 18.8995 19.5625 18.6924C19.8366 18.5079 20.0147 18.4252 20.2153 18.1626C20.3472 17.99 20.4203 17.8778 20.4641 17.665C20.4984 17.4985 20.5253 17.3883 20.4641 17.2296C20.3835 17.0207 20.2978 16.9806 20.1077 16.8621C19.8857 16.7237 19.6552 16.6322 19.4067 16.5506C19.1212 16.4568 18.9615 16.4146 18.6669 16.3559C18.33 16.2887 18.0698 16.2649 17.7272 16.239C17.3397 16.2098 17.1084 16.239 16.7197 16.239H12.5139C12.5139 16.239 12.7965 15.6537 12.9378 15.2392C13.1683 14.563 13.2834 14.1791 13.4976 13.4976C13.6957 12.8672 13.9952 11.8804 13.9952 11.8804L28.8612 12.0048C28.8612 12.0048 28.9589 12.6853 28.9856 13.1244C29.018 13.6578 28.9856 13.9584 28.9856 14.4928C28.9856 15.0029 29.0151 15.2898 28.9856 15.799C28.9517 16.3856 28.9198 16.7169 28.799 17.2918L28.7877 17.3458C28.7034 17.7473 28.6747 17.884 28.5583 18.303C28.4397 18.7298 28.324 19.0827 28.187 19.5004L28.177 19.5311C28.0477 19.9255 27.9714 20.1465 27.8038 20.5263C27.5579 21.0831 27.4128 21.5092 27.1174 22.0415C26.8059 22.6026 26.5819 23.0047 26.2607 23.5602C25.9499 24.0976 25.855 24.2055 25.5207 24.7285C25.2196 25.1997 24.9877 25.4797 24.664 25.9357C24.3322 26.4032 24.1084 26.7204 23.7683 27.1819C23.4283 27.6434 23.1882 27.9386 22.8337 28.3891L22.8048 28.4259C22.4521 28.8742 22.2902 29.08 21.8991 29.5185C21.4759 29.9929 21.2133 30.2702 20.7698 30.7257C20.3384 31.1687 19.9608 31.5346 19.5236 31.9718C19.1592 32.3362 18.998 32.47 18.6279 32.8286C18.2453 33.1993 17.9684 33.4024 17.5765 33.7632C17.0956 34.2058 16.9794 34.2827 16.4832 34.7081C16.1952 34.955 16.0262 35.0847 15.7368 35.3301C15.3691 35.6419 14.8038 36.1387 14.8038 36.1387C14.8038 36.1387 14.2365 35.6821 13.8708 35.3923C13.5318 35.1236 13.3344 34.9823 13 34.7081C12.6537 34.424 12.1292 33.9617 12.1292 33.9617V32.6554C12.1292 32.6554 12.1145 32.3516 12.1292 32.1578C12.1554 31.811 12.2251 31.6228 12.3158 31.287C12.4159 30.9162 12.4755 30.707 12.6268 30.354C12.7331 30.1059 12.8065 29.9718 12.9355 29.7362L12.9378 29.732C13.1158 29.4068 13.2279 29.2307 13.4354 28.9234C13.7262 28.4925 13.8986 28.2545 14.244 27.866C14.5179 27.5579 14.6871 27.3987 14.9904 27.1196C15.2948 26.8394 15.4761 26.6939 15.799 26.4354C16.1782 26.1317 16.3932 25.9632 16.7942 25.6889C17.1725 25.4302 17.3976 25.3047 17.7894 25.0669C18.199 24.8184 18.4315 24.6837 18.8469 24.4449C19.2335 24.2227 19.46 24.1151 19.8421 23.8851C20.2635 23.6315 20.4865 23.4681 20.8995 23.2009C21.3124 22.9337 21.5507 22.7941 21.9569 22.5167C22.302 22.281 22.4921 22.1437 22.8277 21.8947C23.1476 21.6573 23.3313 21.529 23.6363 21.2727C23.939 21.0183 24.1074 20.8723 24.3827 20.5885C24.5864 20.3785 24.7132 20.2687 24.8803 20.0287C25.0233 19.8234 25.0929 19.7316 25.2092 19.5102C25.3103 19.3179 25.3726 19.1777 25.4401 18.9713C25.5537 18.6242 25.5597 18.0693 25.5597 18.0693C25.5597 18.0693 25.5266 17.7298 25.4815 17.5406C25.4244 17.3011 25.3511 17.2191 25.2092 17.0179C25.031 16.7652 24.8722 16.6151 24.6315 16.421C24.427 16.2561 24.2996 16.1786 24.0717 16.0478C23.7701 15.8747 23.5926 15.786 23.2631 15.6746C22.9561 15.5708 22.8012 15.5228 22.4832 15.4602C22.1933 15.4031 22.0366 15.3799 21.7433 15.3434C21.4531 15.3072 21.2566 15.2797 20.9645 15.2655C20.552 15.2454 20.326 15.2265 19.913 15.2265C19.3057 15.2265 18.9524 15.231 18.3493 15.3014C17.7289 15.3738 16.1703 15.6479 16.7942 15.6746C16.8913 15.6788 16.9459 15.6746 17.043 15.6746C17.3102 15.6746 17.4602 15.6652 17.7272 15.6746C18.0438 15.6857 18.221 15.7027 18.5359 15.7368C18.8774 15.7738 19.0672 15.8084 19.4067 15.8612C19.6987 15.9067 19.8657 15.9166 20.1531 15.9856C20.6313 16.1004 20.7698 16.1222 21.1981 16.3169L21.2159 16.325C21.4393 16.4264 21.5566 16.4797 21.7433 16.7453C21.9068 16.9779 21.9906 17.0852 22.0159 17.3684C22.0355 17.5875 22.0197 17.7483 21.938 17.9525C21.804 18.2878 21.6131 18.4923 21.3349 18.7225C20.9867 19.0105 20.779 19.1578 20.4019 19.4067C19.9567 19.7004 19.6888 19.8365 19.2201 20.0909C18.6472 20.4018 18.3177 20.5612 17.7272 20.8373C17.2938 21.04 17.0496 21.1517 16.6076 21.3349C16.1033 21.5439 15.8086 21.6307 15.3014 21.8325C14.8865 21.9976 14.6577 22.0998 14.244 22.2679C13.7592 22.4649 13.4835 22.5654 13 22.7655C12.4872 22.9777 12.1995 23.0968 11.6938 23.3253C11.1294 23.5803 10.8114 23.7216 10.2631 24.0095C9.74299 24.2827 9.44764 24.4329 8.95692 24.7559C8.42128 25.1086 8.14735 25.3454 7.6507 25.7511C7.30383 26.0345 7.10416 26.1886 6.77989 26.4976C6.41907 26.8414 5.90908 27.4306 5.90908 27.4306L4.85167 26.0621L4.10526 24.9425L3.11004 23.3875L2.17703 21.7703L1.49282 20.4641L0.74641 18.5981L0.248803 16.9186L0 15.0526L0.0622008 13.1244L0.124402 11.6316L0.497607 10.0765L0.995214 8.70812L1.55502 7.4641L2.30143 6.34448L3.17224 5.22487L4.66506 3.73205L6.09568 2.61244L7.4641 1.67942L9.08132 0.933012L11.134 0.311004L12.8134 0H14.555L16.2966 0.124402L17.7894 0.435406L19.2823 0.870812L21.0239 1.61722L22.7033 2.67464L23.9473 3.54545L25.4401 4.97607Z" fill="white"/>
<path d="M34.774 36V10.3664H39.655V25.3252H38.8122C38.8122 23.4056 39.058 21.7786 39.5496 20.4443C40.0412 19.1099 40.7669 18.0916 41.7267 17.3893C42.7099 16.687 43.9507 16.3358 45.4489 16.3358H45.6596C47.8367 16.3358 49.487 17.085 50.6107 18.5832C51.7344 20.0814 52.2962 22.2585 52.2962 25.1145V36H47.4153V24.658C47.4153 23.4407 47.0641 22.4809 46.3619 21.7786C45.683 21.0763 44.7817 20.7252 43.658 20.7252C42.4641 20.7252 41.4926 21.1231 40.7435 21.9191C40.0178 22.6916 39.655 23.7099 39.655 24.974V36H34.774Z" fill="white"/>
<path d="M64.0398 36.5969C61.8393 36.5969 60.1304 35.8712 58.9131 34.4198C57.7192 32.9684 57.1223 30.8148 57.1223 27.9588V16.8977H62.0032V28.3801C62.0032 29.5506 62.3309 30.487 62.9864 31.1893C63.6419 31.8682 64.5314 32.2076 65.6551 32.2076C66.7788 32.2076 67.6917 31.8448 68.394 31.1191C69.1197 30.3934 69.4826 29.4102 69.4826 28.1695V16.8977H74.3635V36H70.5009V27.8885H70.8872C70.8872 29.8081 70.6414 31.4117 70.1498 32.6992C69.6582 33.9868 68.9208 34.9583 67.9375 35.6137C66.9543 36.2692 65.7253 36.5969 64.2505 36.5969H64.0398Z" fill="white"/>
<path d="M79.9703 36V16.9328H83.8329V25.1145H83.4818C83.4818 23.1949 83.7276 21.5913 84.2192 20.3038C84.7108 18.9929 85.4365 18.0096 86.3963 17.3542C87.3795 16.6753 88.5968 16.3358 90.0482 16.3358H90.2589C91.7337 16.3358 92.951 16.6753 93.9108 17.3542C94.894 18.0096 95.6197 18.9929 96.0879 20.3038C96.5795 21.5913 96.8253 23.1949 96.8253 25.1145H95.5963C95.5963 23.1949 95.8421 21.5913 96.3337 20.3038C96.8487 18.9929 97.5861 18.0096 98.5459 17.3542C99.5291 16.6753 100.746 16.3358 102.198 16.3358H102.409C103.883 16.3358 105.112 16.6753 106.096 17.3542C107.079 18.0096 107.816 18.9929 108.308 20.3038C108.823 21.5913 109.08 23.1949 109.08 25.1145V36H104.199V24.658C104.199 23.4641 103.895 22.516 103.286 21.8137C102.678 21.088 101.812 20.7252 100.688 20.7252C99.5642 20.7252 98.663 21.0997 97.9841 21.8488C97.3052 22.5745 96.9658 23.5577 96.9658 24.7985V36H92.0848V24.658C92.0848 23.4641 91.7805 22.516 91.1719 21.8137C90.5632 21.088 89.6971 20.7252 88.5734 20.7252C87.4497 20.7252 86.5485 21.0997 85.8696 21.8488C85.1907 22.5745 84.8512 23.5577 84.8512 24.7985V36H79.9703Z" fill="white"/>
<path d="M125.849 36V30.3466H125.041V24.0611C125.041 22.9608 124.772 22.1415 124.234 21.603C123.695 21.0646 122.864 20.7954 121.74 20.7954C121.155 20.7954 120.453 20.8071 119.634 20.8305C118.814 20.8539 117.983 20.889 117.14 20.9359C116.321 20.9593 115.584 20.9944 114.928 21.0412V16.8977C115.467 16.8509 116.075 16.804 116.754 16.7572C117.433 16.7104 118.124 16.687 118.826 16.687C119.552 16.6636 120.231 16.6519 120.863 16.6519C122.829 16.6519 124.456 16.9094 125.744 17.4244C127.054 17.9394 128.038 18.747 128.693 19.8473C129.372 20.9476 129.711 22.3873 129.711 24.1664V36H125.849ZM119.704 36.4916C118.323 36.4916 117.105 36.2458 116.052 35.7542C115.022 35.2626 114.214 34.5603 113.629 33.6473C113.067 32.7343 112.786 31.6341 112.786 30.3466C112.786 28.942 113.126 27.7949 113.805 26.9053C114.507 26.0158 115.478 25.3486 116.719 24.9038C117.983 24.459 119.458 24.2366 121.144 24.2366H125.568V27.1511H121.073C119.95 27.1511 119.083 27.432 118.475 27.9939C117.89 28.5323 117.597 29.2346 117.597 30.1008C117.597 30.9669 117.89 31.6692 118.475 32.2076C119.083 32.7461 119.95 33.0153 121.073 33.0153C121.752 33.0153 122.373 32.8982 122.934 32.6641C123.52 32.4066 123.999 31.9852 124.374 31.4C124.772 30.7913 124.994 29.972 125.041 28.942L126.235 30.3114C126.118 31.6458 125.79 32.7695 125.252 33.6824C124.737 34.5954 124.011 35.2977 123.075 35.7893C122.162 36.2575 121.038 36.4916 119.704 36.4916Z" fill="white"/>
<path d="M148.283 36L141.892 27.0809H139.048L147.16 16.9328H152.251L144.772 26.3084L144.877 23.8504L153.796 36H148.283ZM134.94 36V10.3664H139.821V36H134.94Z" fill="white"/>
<path d="M169.955 36L163.565 27.0809H160.72L168.832 16.9328H173.923L166.444 26.3084L166.549 23.8504L175.468 36H169.955ZM156.612 36V10.3664H161.493V36H156.612Z" fill="white"/>
<path d="M186.2 36.6672C184.561 36.6672 183.121 36.3863 181.881 35.8244C180.663 35.2626 179.645 34.5135 178.826 33.5771C178.03 32.6173 177.421 31.5522 177 30.3817C176.602 29.2112 176.403 28.0173 176.403 26.8V26.1328C176.403 24.8687 176.602 23.6514 177 22.4809C177.421 21.287 178.03 20.2336 178.826 19.3206C179.645 18.3842 180.652 17.6468 181.846 17.1084C183.039 16.5465 184.421 16.2656 185.989 16.2656C188.049 16.2656 189.77 16.7221 191.151 17.6351C192.556 18.5247 193.609 19.7068 194.311 21.1817C195.014 22.6331 195.365 24.2015 195.365 25.887V27.6427H178.475V24.658H192.31L190.8 26.1328C190.8 24.9155 190.624 23.8738 190.273 23.0076C189.922 22.1415 189.384 21.4743 188.658 21.0061C187.956 20.5379 187.066 20.3038 185.989 20.3038C184.912 20.3038 183.999 20.5496 183.25 21.0412C182.501 21.5328 181.928 22.2468 181.53 23.1832C181.155 24.0962 180.968 25.1964 180.968 26.484C180.968 27.6779 181.155 28.743 181.53 29.6794C181.904 30.5924 182.478 31.3181 183.25 31.8565C184.023 32.3715 185.006 32.629 186.2 32.629C187.394 32.629 188.365 32.3949 189.114 31.9267C189.863 31.4351 190.343 30.8382 190.554 30.1359H195.049C194.768 31.4468 194.229 32.5939 193.433 33.5771C192.637 34.5603 191.619 35.3211 190.378 35.8595C189.161 36.398 187.768 36.6672 186.2 36.6672Z" fill="white"/>
<path d="M199.442 36V16.9328H203.305V25.0091H203.199C203.199 22.2702 203.785 20.1985 204.955 18.7939C206.126 17.3893 207.846 16.687 210.117 16.687H210.819V20.9359H209.485C207.846 20.9359 206.57 21.3806 205.657 22.2702C204.768 23.1364 204.323 24.4005 204.323 26.0626V36H199.442Z" fill="white"/>
</svg>
