<svg width="31" height="39" viewBox="0 0 31 39" fill="none" xmlns="http://www.w3.org/2000/svg">
<path d="M21.739 17.4463C20.3007 16.4205 17.2528 16.8647 17.2528 16.8647C17.2528 16.8647 18.2908 16.0219 19.0805 15.7432C20.3349 15.3005 21.1641 15.6014 22.4867 15.7432C24.251 15.9323 25.5473 15.7045 26.8898 16.8647C27.4937 17.3866 27.8839 17.7274 28.136 18.4847C28.5057 19.5957 28.0905 20.3726 27.596 21.434C27.0378 22.6319 26.3472 23.0973 25.3529 23.9678C23.73 25.3887 22.2959 25.4229 20.5344 26.6679C18.5365 28.0798 17.2432 28.8304 15.8821 30.8633C14.4948 32.9351 13.7636 36.8864 13.7636 36.8864C13.7636 36.8864 11.7743 35.391 10.7728 34.3525C9.77134 33.3141 9.65097 33.1891 8.57124 32.0679C7.49123 30.9463 5.74661 28.4956 5.74661 28.4956L7.15892 27.4156C7.15892 27.4156 9.31055 25.9369 10.7728 25.1309C12.54 24.1568 13.6108 23.763 15.4667 22.9709C17.2952 22.1904 18.5109 22.147 20.2021 21.1017C21.4089 20.3557 23.3935 20.1876 23.0267 18.817C22.8368 18.1075 22.337 17.8727 21.739 17.4463Z" fill="#FD0A1C"/>
<path d="M27.1362 5.3078L23.3543 7.69632C23.3543 7.69632 22.7674 7.14659 22.3591 6.8338C21.9142 6.4929 21.6552 6.3093 21.1649 6.03763C20.6678 5.76221 20.3658 5.65076 19.8379 5.4405C19.3279 5.23735 19.0444 5.10622 18.511 4.97607C17.977 4.84577 17.6648 4.82906 17.1177 4.77702C16.6348 4.7311 16.3588 4.72385 15.8805 4.71129L15.8571 4.71068C15.3649 4.69774 15.0871 4.67066 14.5965 4.71068C14.2312 4.74046 14.0284 4.77949 13.6676 4.84337C13.1972 4.92666 12.931 4.97151 12.4733 5.10876C12.0493 5.23596 11.8172 5.32894 11.4118 5.50685C11.0404 5.66981 10.832 5.76477 10.4829 5.97128C10.1303 6.17988 9.93532 6.27296 9.60971 6.52158C9.25901 6.78935 9.10183 6.92702 8.77893 7.22774C8.5376 7.45249 8.34751 7.65916 8.11431 7.89236C7.90703 8.09964 7.82622 8.20838 7.62997 8.42614C7.40783 8.67262 7.29406 8.82106 7.09919 9.08961C6.93459 9.31645 6.84034 9.44351 6.7011 9.68674C6.58597 9.88787 6.5335 10.0074 6.43571 10.2175C6.29983 10.5095 6.23207 10.6839 6.11975 10.9731L6.10398 11.0137C5.96446 11.3727 5.86332 11.5683 5.77224 11.9426C5.67952 12.3235 5.60445 12.5687 5.58045 12.9601C5.55984 13.2963 5.53891 13.4956 5.53891 13.8324C5.53891 14.221 5.56614 14.4409 5.58045 14.8293C5.59385 15.1927 5.63839 15.367 5.70589 15.7244C5.7713 16.0707 5.85087 16.2557 5.97128 16.5869C6.10612 16.9578 6.20265 17.158 6.36937 17.5158C6.51622 17.8308 6.59933 18.0077 6.76745 18.3119C6.95874 18.6581 7.0616 18.8575 7.29823 19.1744C7.57249 19.5417 7.73925 19.7487 8.07278 20.0632C8.36726 20.3409 8.54621 20.5162 8.86201 20.7694C9.1936 21.0351 9.38783 21.1467 9.75309 21.3639C10.072 21.5535 10.2711 21.6245 10.6156 21.762C10.9961 21.9139 11.2153 21.987 11.6108 22.0937C11.969 22.1904 12.1724 22.2408 12.5397 22.2928C12.8998 22.3437 13.105 22.3523 13.4686 22.3591C13.9614 22.3684 14.2408 22.3601 14.7292 22.2928C15.2025 22.2276 15.4635 22.1567 15.9234 22.0274C16.3178 21.9165 16.5329 21.8575 16.9205 21.7247C17.3624 21.5734 17.6147 21.4757 18.0465 21.2976C18.3895 21.1561 18.5762 21.0879 18.9144 20.9355C19.3269 20.7496 19.5707 20.6467 19.9706 20.435C20.3202 20.2501 20.5386 20.1594 20.8667 19.9386C21.1591 19.7418 21.349 19.6535 21.563 19.3735C21.7037 19.1893 21.7816 19.0697 21.8284 18.8427C21.8649 18.6651 21.8936 18.5475 21.8284 18.3783C21.7424 18.1554 21.651 18.1126 21.4482 17.9863C21.2114 17.8386 20.9656 17.7411 20.7004 17.654C20.396 17.5539 20.2256 17.509 19.9113 17.4463C19.552 17.3746 19.2744 17.3492 18.9091 17.3216C18.4957 17.2904 18.2489 17.3216 17.8344 17.3216H13.3482C13.3482 17.3216 13.6496 16.6973 13.8003 16.2551C14.0462 15.5339 14.1689 15.1244 14.3974 14.3974C14.6087 13.725 14.9282 12.6724 14.9282 12.6724L30.7853 12.8051C30.7853 12.8051 30.8895 13.5309 30.918 13.9993C30.9525 14.5683 30.918 14.889 30.918 15.459C30.918 16.0031 30.9494 16.3091 30.918 16.8523C30.8818 17.4779 30.8478 17.8313 30.7189 18.4446L30.7068 18.5022C30.6169 18.9304 30.5863 19.0763 30.4621 19.5232C30.3357 19.9785 30.2123 20.3549 30.0662 20.8005L30.0554 20.8331C29.9175 21.2539 29.8362 21.4897 29.6574 21.8947C29.3951 22.4887 29.2403 22.9432 28.9252 23.5109C28.593 24.1094 28.354 24.5383 28.0114 25.1309C27.6799 25.7041 27.5786 25.8192 27.2221 26.3771C26.9009 26.8797 26.6536 27.1784 26.3083 27.6648C25.9543 28.1634 25.7156 28.5017 25.3529 28.994C24.9901 29.4863 24.7341 29.8011 24.356 30.2817L24.3251 30.321C23.9489 30.7992 23.7762 31.0187 23.359 31.4863C22.9076 31.9924 22.6275 32.2882 22.1544 32.774C21.6943 33.2466 21.2915 33.6369 20.8252 34.1033C20.4365 34.4919 20.2645 34.6347 19.8698 35.0171C19.4616 35.4125 19.1663 35.6292 18.7482 36.0141C18.2353 36.4862 18.1114 36.5682 17.5821 37.0219C17.2748 37.2854 17.0946 37.4237 16.7859 37.6854C16.3937 38.018 15.7907 38.5479 15.7907 38.5479C15.7907 38.5479 15.1856 38.0609 14.7955 37.7518C14.434 37.4652 14.2233 37.3145 13.8666 37.0219C13.4972 36.719 12.9378 36.2258 12.9378 36.2258V34.8325C12.9378 34.8325 12.9221 34.5084 12.9378 34.3017C12.9658 33.9318 13.0401 33.731 13.1368 33.3728C13.2436 32.9773 13.3072 32.7542 13.4686 32.3776C13.582 32.1129 13.6603 31.9699 13.7978 31.7186L13.8003 31.7141C13.9902 31.3672 14.1098 31.1794 14.3311 30.8516C14.6413 30.392 14.8251 30.1381 15.1936 29.7237C15.4858 29.3951 15.6662 29.2253 15.9898 28.9275C16.3144 28.6287 16.5079 28.4735 16.8523 28.1977C17.2568 27.8738 17.4861 27.6941 17.9138 27.4015C18.3174 27.1256 18.5575 26.9917 18.9754 26.7381C19.4123 26.4729 19.6603 26.3293 20.1033 26.0746C20.5157 25.8375 20.7573 25.7228 21.1649 25.4775C21.6144 25.2069 21.8523 25.0327 22.2928 24.7476C22.7333 24.4626 22.9874 24.3137 23.4207 24.0178C23.7888 23.7664 23.9916 23.62 24.3496 23.3543C24.6908 23.1011 24.8868 22.9643 25.2121 22.6909C25.535 22.4195 25.7146 22.2638 26.0082 21.961C26.2255 21.7371 26.3607 21.62 26.539 21.3639C26.6915 21.145 26.7657 21.047 26.8898 20.8109C26.9976 20.6058 27.0641 20.4563 27.1362 20.236C27.2573 19.8658 27.2637 19.274 27.2637 19.274C27.2637 19.274 27.2284 18.9118 27.1803 18.71C27.1194 18.4545 27.0412 18.3671 26.8898 18.1524C26.6997 17.8829 26.5303 17.7228 26.2736 17.5158C26.0555 17.3398 25.9196 17.2572 25.6765 17.1177C25.3548 16.933 25.1654 16.8384 24.814 16.7196C24.4865 16.6089 24.3213 16.5577 23.9821 16.4909C23.6728 16.4299 23.5057 16.4052 23.1929 16.3663C22.8833 16.3277 22.6737 16.2984 22.3621 16.2832C21.9221 16.2617 21.681 16.2416 21.2406 16.2416C20.5928 16.2416 20.2159 16.2465 19.5725 16.3215C18.9109 16.3987 17.2483 16.6911 17.9138 16.7196C18.0174 16.724 18.0756 16.7196 18.1792 16.7196C18.4642 16.7196 18.6242 16.7096 18.9091 16.7196C19.2467 16.7314 19.4357 16.7495 19.7716 16.7859C20.1359 16.8254 20.3384 16.8623 20.7004 16.9186C21.0119 16.9671 21.1901 16.9777 21.4966 17.0513C22.0068 17.1738 22.1544 17.197 22.6113 17.4047L22.6303 17.4134C22.8686 17.5215 22.9937 17.5783 23.1929 17.8616C23.3673 18.1097 23.4566 18.2242 23.4836 18.5263C23.5045 18.76 23.4877 18.9315 23.4006 19.1493C23.2576 19.507 23.054 19.7251 22.7572 19.9706C22.3859 20.2778 22.1643 20.435 21.762 20.7004C21.2872 21.0137 21.0013 21.1589 20.5014 21.4303C19.8904 21.7619 19.5388 21.9319 18.9091 22.2264C18.4467 22.4426 18.1863 22.5618 17.7148 22.7572C17.1769 22.9801 16.8625 23.0728 16.3215 23.288C15.8789 23.4641 15.6349 23.5731 15.1936 23.7524C14.6765 23.9625 14.3824 24.0698 13.8666 24.2832C13.3196 24.5096 13.0128 24.6366 12.4733 24.8803C11.8714 25.1523 11.5322 25.303 10.9473 25.6102C10.3925 25.9015 10.0775 26.0617 9.55405 26.4063C8.9827 26.7825 8.69051 27.0351 8.16075 27.4679C7.79075 27.7701 7.57776 27.9345 7.23188 28.2641C6.847 28.6308 6.30302 29.2593 6.30302 29.2593L5.17511 27.7996L4.37894 26.6054L3.31738 24.9467L2.32216 23.2216L1.59234 21.8283L0.796171 19.8379L0.26539 18.0465L0 16.0561L0.0663476 13.9993L0.132695 12.407L0.53078 10.7483L1.06156 9.28866L1.65869 7.96171L2.45486 6.76745L3.38373 5.57319L4.97607 3.98085L6.50206 2.7866L7.96171 1.79138L9.68674 0.995213L11.8762 0.331738L13.6676 0H15.5253L17.3831 0.132695L18.9754 0.464433L20.5677 0.928866L22.4255 1.72504L24.2169 2.85294L25.5438 3.78181L27.1362 5.3078Z" fill="white"/>
</svg>
